<?xml version="1.0" encoding="UTF-8"?>
<svg id="Capa_2" data-name="Capa 2" xmlns="http://www.w3.org/2000/svg" viewBox="0 0 739.58 745.71">
  <defs>
    <style>
      .cls-1 {
        fill: #7a1c8d;
      }
    </style>
  </defs>
  <g id="Capa_1-2" data-name="Capa 1">
    <g>
      <g>
        <path class="cls-1" d="M350.15,143.87c-5.35-.76-10.51-1.43-15.64-2.24-9.82-1.54-19.6-4.1-29.46-4.5-12.33-.5-24.84.61-35.76,7.46-10.84,6.8-12.6,17.74-11.79,29.24,1.36,19.21,8.55,36.66,17.19,53.58,9.76,19.13,19.73,38.16,29.38,57.34,1.31,2.61,1.29,5.87,2,8.8.4,1.64,1.02,3.23,1.76,5.52-1.51-.64-2.34-.84-3-1.28-32-21.77-60.28-47.32-81.32-80.19-9.77-15.27-15.65-31.93-16.44-50.06-1.11-25.49,9.46-45.64,30.04-60.25,22.43-15.92,47.2-19.7,72.99-10.17,20.37,7.53,32.55,23.7,40.03,43.62.27.72.03,1.64.03,3.14Z"/>
        <path class="cls-1" d="M402.49,141.92c.9-2.37,1.54-4.35,2.38-6.25,10.09-22.79,26.92-37.57,51.71-41.99,23.83-4.26,46.33.22,65.38,15.26,19.98,15.77,30.89,36.17,27.28,62.9-2.59,19.16-11.49,35.22-22.15,50.63-14.22,20.54-33.17,36.36-52.55,51.65-8.91,7.03-18.36,13.37-28.07,20.39.45-15.04,9.73-25.17,15.83-36.6,10.98-20.57,22.95-40.65,30.74-62.75,3.5-9.93,6.16-20.08,4.92-30.84-1.69-14.63-10.43-23.96-25.11-26.69-13.61-2.52-27.15-2.17-40.73.34-8.38,1.55-16.83,2.67-25.26,3.92-1.22.18-2.49.03-4.37.03Z"/>
        <path class="cls-1" d="M739.43,344.62c-.04-33.13-10.43-69.11-21.46-100.12-10.15-28.54-23.79-55.82-40.7-80.95-36.35-54.02-87.41-98.86-146.05-127.22C397.05-28.57,235.89-4.67,124.51,93.29c-51.36,45.17-90.49,105.38-109.17,171.31C6.81,294.73.8,324.9.3,356.01c-.3,18.9-.82,37.86,1.01,56.71,1.92,19.76,6.08,39.52,10.28,58.9,14.78,68.19,46.68,132.82,96.7,182.16,24.64,24.31,53.3,44.73,85.13,58.49,15.32,6.62,31.26,11.75,47.52,15.48,17.07,3.92,36.01,8.06,53.57,6.33,31.62-3.12,63.57-25.36,82.18-50.3,18.23-24.42,23.74-54.52,19.04-84.3-2.73-17.31-8.89-33.74-16.75-49.34-4.06-8.07-8.41-16.12-13.31-23.71-8.89-13.75-.95,6.98.56,11.81,10.81,34.41,14.78,72.83,1.53,107.12-11.58,29.96-36.83,50.87-68.47,56.88-34.26,6.51-70.92-5.06-101.39-20.28-61.28-30.62-107.94-85.31-136.48-146.84C.42,403.61,22.45,238.7,122.96,133.02c12.46-13.1,26.66-23.76,40.77-34.96,14.66-11.64,29.52-22.55,46.13-31.29,32.07-16.87,67.48-28.49,103.17-34.58,70.92-12.11,146.57-1.27,210.8,31.4,123.09,62.61,198.96,197.18,186.85,334.99-6.29,71.64-33.09,141.78-80.53,196.47-46.2,53.26-107.41,93.3-176.26,110.06-9.12,2.22-18.34,4.07-27.6,5.61-7.81,1.3-16.81,1.18-23.95,4.78-11.55,5.82-22.78,19.2-29.04,30.22,3.65,0,5.21-1.15,8.47-1.73,4.53-.81,9.33-.69,13.95-1.15,10.38-1.02,20.77-2.81,31.09-4.39,20.79-3.18,40.95-8.1,60.86-14.89,37.47-12.77,72.8-31.22,104.48-54.99,60.49-45.38,106.84-110.08,129.95-182.12,6.94-21.63,11.53-43.84,14.76-66.3,3.61-25.05,2.63-50.29,2.59-75.53,0-1.41.02,12.12,0,0Z"/>
        <path class="cls-1" d="M666.83,315.03h0c-5.48-18.99-16.81-33.34-34.38-42.41-16.21-8.37-33.64-10.47-51.46-7.82-42.63,6.33-79.57,29.59-114.42,49.99h47.93c4.25,0,8.46-2.2,12.75-2.51,15.6-1.1,31.22-2.32,46.85-2.6,8.86-.16,17.85-1.17,25.98,5.11h2.57c1.6,0,3.19,1.93,4.79,2.82,7.23,4.02,11.84,9.87,13.5,18.22,1.83,9.2.51,18.18-3.14,26.3-6.11,13.57-13.44,26.6-20.31,39.83-1.6,3.09-3.4,6.08-5.31,9.47,4.45,0,8.13,0,11.82,0,14.47.03,27.36-5.08,38-14.29,25.38-21.96,32.79-49.83,24.84-82.12Z"/>
        <path class="cls-1" d="M280.93,311.71c-18.83-12.01-37.18-24.86-56.71-35.61-25.38-13.97-52.71-22.23-82.22-20.02-16.49,1.23-31.39,6.87-43.54,18.47-11.6,11.07-18.09,24.93-21.28,40.47h0c-10.05,52.41,27.52,97.52,74.06,93.11-1.06-2.19-1.87-4.22-2.98-6.06-9.19-15.27-17.49-31.09-22.04-48.43-3.61-13.78-4.55-24.74,6.58-38.86h.86c4.06-6.28,10.34-7.2,16.54-8.6,14.05-3.18,28.4-3.03,42.52-1.35,19.88,2.36,39.61,5.86,59.4,8.97.78.12,1.48.99,2.21.99h29.95c-1.11,0-2.07-2.26-3.35-3.07Z"/>
        <path class="cls-1" d="M507.1,315.03c-15,1.89-29.83,6.12-46.3,4.05,1.81-2.08,2.66-3.06,3.51-4.05,14.26,0,28.53,0,42.79,0Z"/>
        <path class="cls-1" d="M284.59,315.03c.44.68.88,1.37,1.63,2.53-9.63,1.85-18.41-1.06-27.3-2.53,8.56,0,17.12,0,25.67,0Z"/>
        <path class="cls-1" d="M594.54,443.3c17.91,7.66,32.57,18.18,41.61,35.49,5.71,10.95,7.05,22.54,6.75,34.72-.82,32.53-25.59,67.45-62.64,75.85-17.98,4.07-35.61,1.89-52.64-5.58-24.82-10.88-44.99-27.78-62.62-47.9-16.47-18.79-30.73-39.2-43.4-62.05,3.27.91,6.01,1.22,8.29,2.41,6.56,3.41,13.03,7.01,19.36,10.83,18.16,10.95,35.94,22.59,54.45,32.92,15.02,8.38,30.77,15.8,48.14,17.88,6.49.78,13.36.06,19.83-1.19,7.63-1.47,13.04-6.61,16.79-13.46,5.87-10.72,8.55-22.4,8.48-34.38-.08-13.89-1.55-27.78-2.39-41.66-.07-1.1,0-2.2,0-3.89Z"/>
        <path class="cls-1" d="M309.16,477.58c-1.46,2.81-2.79,5.69-4.39,8.41-13.68,23.24-28.15,45.95-46.86,65.57-15.36,16.11-32.12,30.48-53.53,38.01-26.77,9.43-51.94,6.34-73.7-12.46-16.51-14.27-25.76-32.83-28.42-54.75-2.01-16.56.45-32.15,9.03-46.32,7.39-12.2,18.25-21,31.13-27.19,1.12-.54,2.36-.86,4.62-1.67-.29,5.36-.48,10.07-.81,14.76-1.27,18.04-2.7,36.15,2.34,53.83,6.15,21.55,20.47,29.69,42.31,24.73,17.6-3.99,33.44-12.08,48.55-21.54,18.47-11.56,36.57-23.7,54.94-35.43,4.32-2.76,9.08-4.85,13.63-7.25.39.43.77.86,1.16,1.28Z"/>
      </g>
      <g>
        <path class="cls-1" d="M371.65,283.45h-53.02v-1.12h1.35c1.72,0,3.17-.57,4.33-1.69,1.16-1.13,1.78-2.51,1.86-4.16v-53.59c-.07-1.65-.69-3.04-1.86-4.16-1.16-1.13-2.61-1.69-4.33-1.69h-1.35v-1.12h39.62c2.03,0,4.24-.19,6.64-.57,2.41-.37,4.09-.75,5.07-1.12v17.9h-1.12v-1.01c0-3.3-.9-5.89-2.7-7.77-1.8-1.87-4.32-2.85-7.54-2.93h-16.21v27.36h12.84c2.55-.07,4.61-.94,6.19-2.59,1.58-1.64,2.37-3.75,2.37-6.3v-.79h1.12v23.86h-1.12v-.78c0-3.53-1.32-6.08-3.94-7.66-1.35-.82-2.85-1.24-4.5-1.24h-12.94v26.68h13.51c4.65-.07,8.61-1.52,11.87-4.33,3.26-2.82,5.65-6.78,7.15-11.88h1.01l-4.28,20.72Z"/>
        <path class="cls-1" d="M381.56,283.45v-1.12h1.35c1.72,0,3.17-.57,4.33-1.69,1.16-1.13,1.75-2.51,1.75-4.16v-53.47c0-1.65-.6-3.06-1.8-4.22-1.2-1.16-2.63-1.74-4.28-1.74h-1.35v-1.12h31.29v1.12h-1.35c-1.73,0-3.19.56-4.39,1.69-1.2,1.12-1.8,2.55-1.8,4.28v55.95h13.51c4.65-.07,8.59-1.52,11.81-4.33,3.23-2.82,5.59-6.78,7.1-11.88h1.24l-4.39,20.72h-53.02Z"/>
        <path class="cls-1" d="M230.78,348.22v-1.02c0-3.23-.9-5.78-2.71-7.65-1.8-1.88-4.32-2.85-7.54-2.93h-13.06v56.17c.07,1.65.71,3.03,1.91,4.16,1.2,1.12,2.63,1.69,4.28,1.69h1.24v1.12h-31.07v-1.12h1.12c1.73,0,3.19-.57,4.39-1.69,1.2-1.13,1.8-2.55,1.8-4.28v-56.06h-12.94c-3.31.07-5.85,1.05-7.66,2.93-1.8,1.87-2.7,4.42-2.7,7.65v1.02h-1.13v-17.79c1.06.37,2.8.75,5.24,1.13,2.44.37,4.63.56,6.58.56h41.54c3.3,0,6.03-.25,8.17-.74s3.35-.8,3.66-.96v17.79h-1.12Z"/>
        <path class="cls-1" d="M265.9,336.85h-3.6v55.84c0,1.8.62,3.25,1.86,4.33,1.24,1.09,2.65,1.64,4.22,1.64h1.24v1.12h-30.95v-1.12h1.35c1.65,0,3.05-.57,4.22-1.69,1.16-1.13,1.74-2.51,1.74-4.16v-53.59c0-1.65-.58-3.04-1.74-4.16-1.17-1.13-2.53-1.69-4.11-1.69h-1.46v-1.12h34.56c6.76,0,12.42,1.31,17,3.94,5.11,2.93,7.65,7.77,7.65,14.52,0,4.36-1.31,8.27-3.94,11.77-2.63,3.49-6.53,5.61-11.71,6.36,2.02.68,4.03,1.96,6.02,3.83,1.99,1.88,3.58,3.79,4.78,5.74,2.4,4.28,4.92,8.2,7.54,11.77,2.63,3.56,4.74,5.87,6.36,6.92,1.61,1.05,3.58,1.58,5.91,1.58v1.12h-9.46c-6.23,0-11.01-.75-14.35-2.25-3.34-1.5-6.32-4.35-8.95-8.55-4.06-6.46-6.57-11.55-7.54-15.31-.9-2.25-1.97-3.94-3.21-5.07-1.24-1.13-2.42-1.76-3.55-1.92v-.9h2.82c6.38-.07,10.28-3.83,11.71-11.26.29-1.12.45-2.1.45-2.93s-.04-1.97-.11-3.43-.55-3.11-1.4-4.95c-.87-1.84-1.97-3.17-3.32-4-2.33-1.42-4.73-2.18-7.21-2.25-.82-.07-1.76-.11-2.81-.11Z"/>
        <path class="cls-1" d="M364.84,399.78h-53.02v-1.12h1.35c1.72,0,3.17-.57,4.33-1.69,1.16-1.13,1.78-2.51,1.86-4.16v-53.59c-.07-1.65-.69-3.04-1.86-4.16-1.16-1.13-2.61-1.69-4.33-1.69h-1.35v-1.12h39.62c2.03,0,4.24-.19,6.64-.57,2.41-.37,4.09-.75,5.07-1.12v17.9h-1.12v-1.01c0-3.3-.9-5.89-2.7-7.77-1.8-1.87-4.32-2.85-7.54-2.93h-16.21v27.36h12.84c2.55-.07,4.61-.94,6.19-2.59,1.58-1.64,2.37-3.78,2.37-6.42v-.67h1.12v23.86h-1.12v-.78c0-3.53-1.32-6.08-3.94-7.66-1.35-.82-2.85-1.24-4.5-1.24h-12.94v26.68h13.51c4.65-.07,8.61-1.52,11.87-4.33,3.26-2.82,5.65-6.78,7.15-11.88h1.01l-4.28,20.72ZM339.63,325.25l-.79-.79c3.22-5.55,8.63-11.74,16.21-18.57,3.61,1.95,6.15,5.03,7.66,9.23-7.73,4.88-15.42,8.26-23.07,10.13Z"/>
        <path class="cls-1" d="M430.59,349.01c0,2.77-.6,5.21-1.8,7.32-2.33,4.05-5.85,6.26-10.59,6.64,5.03.38,9.24,2.16,12.61,5.35,3.37,3.19,5.07,7.26,5.07,12.21,0,9.68-5.82,15.76-17.45,18.24-3.3.67-6.91,1.02-10.81,1.02h-32.65v-1.12h1.24c1.72,0,3.17-.57,4.33-1.69,1.16-1.13,1.78-2.55,1.86-4.28v-53.36c-.07-2.7-1.35-4.54-3.82-5.52-.76-.29-1.54-.45-2.37-.45h-1.24v-1.12h30.17c16.96,0,25.44,5.59,25.44,16.77ZM417.64,379.52c0-3.45-.72-6.34-2.14-8.67-2.63-4.5-7.17-6.76-13.62-6.76h-.23v-1.02c3.6,0,6.53-1.05,8.78-3.15,2.25-2.11,3.37-5.37,3.37-9.8,0-9.01-4.09-13.51-12.27-13.51h-3.15v58.65h4.5c4.35,0,7.9-1.28,10.64-3.83,2.74-2.55,4.11-6.53,4.11-11.93Z"/>
        <path class="cls-1" d="M444.77,366c0-10.81,3.62-19.38,10.86-25.72,7.24-6.34,16.89-9.51,28.94-9.51s21.71,3.17,28.98,9.51,10.92,14.92,10.92,25.72-3.64,19.39-10.92,25.73c-7.28,6.34-16.92,9.51-28.93,9.51s-21.65-3.17-28.93-9.51c-7.28-6.34-10.92-14.92-10.92-25.73ZM462,366c0,9.46,2.04,16.95,6.13,22.46,4.09,5.51,9.57,8.27,16.44,8.27s12.34-2.76,16.43-8.27,6.13-13,6.13-22.46-2.04-16.94-6.13-22.45c-4.09-5.52-9.57-8.28-16.43-8.28s-12.35,2.76-16.44,8.28c-4.09,5.51-6.13,13-6.13,22.45Z"/>
        <path class="cls-1" d="M530.78,399.78v-1.12h1.35c1.72,0,3.17-.57,4.33-1.69,1.16-1.13,1.75-2.51,1.75-4.16v-53.47c0-1.65-.6-3.06-1.8-4.22-1.2-1.16-2.63-1.74-4.28-1.74h-1.35v-1.12h31.29v1.12h-1.35c-1.73,0-3.19.56-4.39,1.69-1.2,1.12-1.8,2.55-1.8,4.28v55.95h13.51c4.65-.07,8.59-1.52,11.81-4.33,3.23-2.82,5.59-6.78,7.1-11.88h1.24l-4.39,20.72h-53.02Z"/>
      </g>
      <g>
        <path class="cls-1" d="M189.29,432.82c3.23-2.98,7.59-4.46,13.07-4.46s9.84,1.48,13.07,4.46c3.23,2.97,4.85,7.01,4.85,12.12s-1.62,9.14-4.85,12.12c-3.23,2.97-7.59,4.46-13.07,4.46s-9.84-1.48-13.07-4.46c-3.23-2.98-4.85-7.02-4.85-12.12s1.62-9.14,4.85-12.12ZM194.71,455.66c1.86,2.63,4.41,3.94,7.62,3.94s5.77-1.31,7.65-3.94c1.88-2.63,2.83-6.2,2.83-10.73s-.94-8.1-2.83-10.73c-1.88-2.63-4.43-3.94-7.65-3.94s-5.76,1.32-7.62,3.94c-1.87,2.63-2.8,6.2-2.8,10.73s.93,8.1,2.8,10.73Z"/>
        <path class="cls-1" d="M235.77,431h-2.09v26.55c.03.8.33,1.47.89,2.03s1.24.84,2.02.84h.59v.45h-13.85v-.45h.59c1.1,0,1.93-.47,2.51-1.41.24-.43.38-.9.41-1.42v-25.27c-.03-.79-.32-1.46-.88-2.03-.57-.56-1.24-.84-2.03-.84h-.59v-.45h15.62c2.95,0,5.44.64,7.47,1.91,1.04.64,1.85,1.53,2.46,2.67.61,1.14.91,2.63.91,4.46s-.63,3.61-1.91,5.31c-1.28,1.7-3.13,2.67-5.55,2.91,1.76.58,3.31,1.91,4.64,4.01,3.28,5.25,5.71,8.38,7.28,9.38.79.49,1.78.74,2.96.78v.45h-4.46c-2.64,0-4.83-.35-6.58-1.05-1.75-.69-3.12-1.92-4.12-3.69-.58-1-1.84-3.6-3.78-7.79-.85-1.85-1.88-2.87-3.09-3.05v-.45h1.41c1.36,0,2.57-.41,3.62-1.23s1.75-2.16,2.12-4.01c.12-.63.18-1.14.18-1.5,0-2.49-.5-4.28-1.5-5.39-1-1.11-2.29-1.68-3.87-1.71h-1.37Z"/>
        <path class="cls-1" d="M273.21,461.51c-5.19,0-9.36-1.49-12.5-4.48-3.14-2.99-4.71-7.03-4.71-12.12s1.57-9.12,4.71-12.09c3.14-2.98,7.4-4.46,12.78-4.46,2.43,0,4.78.23,7.06.7,2.28.47,4.12,1.06,5.51,1.76l.09,7.83h-.41c-.79-2.95-2.14-5.08-4.05-6.4-1.92-1.32-4.19-1.98-6.84-1.98-3.68,0-6.5,1.32-8.47,3.94-1.98,2.63-2.96,6.22-2.96,10.79s.9,8.15,2.71,10.73c1.8,2.58,4.36,3.87,7.68,3.87,2.39,0,4.4-.68,6.01-2.05.79-.69,1.37-1.52,1.73-2.46v-6.96c0-.67-.21-1.18-.61-1.53-.41-.35-1-.52-1.75-.52h-.73v-.45h12.8v.45h-.68c-.73,0-1.3.17-1.69.52-.39.35-.59.86-.59,1.53v7.51c-1.18,1.55-3.14,2.91-5.87,4.1-2.73,1.18-5.8,1.77-9.2,1.77Z"/>
        <path class="cls-1" d="M325,460.42h.41v.45h-14.53v-.45h.41c.67,0,1.16-.21,1.48-.61.32-.41.47-.8.47-1.16s-.07-.73-.23-1.1l-2.23-5.6h-10.65l-2.37,5.6c-.15.4-.23.77-.23,1.12s.17.73.5,1.14c.33.41.84.61,1.5.61h.36v.45h-9.74v-.45h.41c.7,0,1.4-.21,2.1-.64.69-.42,1.28-1.06,1.73-1.91l10.52-23.82c1.43-3.01,2.19-5,2.28-5.97h.41l13.53,29.7c.46.88,1.04,1.54,1.73,1.98.7.44,1.42.66,2.15.66ZM300.9,450.04h9.12l-4.42-11.21-4.69,11.21Z"/>
        <path class="cls-1" d="M361.2,429.45c-1.06,0-1.86.45-2.41,1.37-.24.39-.38.85-.41,1.36v23.5c0,2.03.13,3.75.41,5.15l.13.68h-.41l-23-21.91v18.08c0,.76.27,1.4.82,1.94.55.53,1.2.8,1.96.8h.87v.45h-13.81v-.45h.82c.79,0,1.46-.27,2-.8.55-.53.82-1.2.82-1.98v-23.64c0-2-.14-3.68-.41-5.01l-.09-.68h.41l23,21.91v-17.99c-.03-.79-.32-1.45-.87-1.98-.54-.53-1.2-.8-1.96-.8h-.82v-.45h13.8v.45h-.87Z"/>
        <path class="cls-1" d="M365.17,460.42c.79,0,1.46-.28,2.02-.84s.86-1.24.89-2.03v-25.27c-.03-.79-.33-1.46-.89-2s-1.24-.82-2.02-.82h-.59v-.45h13.85l-.05.45h-.54c-.8,0-1.48.27-2.05.82-.58.55-.87,1.22-.87,2v25.27c0,.8.29,1.47.87,2.03.57.56,1.26.84,2.05.84h.54l.05.45h-13.85v-.45h.59Z"/>
        <path class="cls-1" d="M382.92,428.13c.45.18,1.26.36,2.39.54,1.14.19,2.18.27,3.12.27h14.53c1.28,0,2.35-.07,3.23-.23.88-.15,1.4-.27,1.55-.36v.41l-16.85,30.2h9.56c1.94,0,3.64-.65,5.08-1.96,1.44-1.31,2.47-3.07,3.07-5.29h.45l-1.64,9.16h-25.14v-.41l16.71-29.6h-11.02c-1.92.03-3.27.77-4.06,2.23-.36.69-.55,1.5-.55,2.41v.55h-.45v-7.93Z"/>
        <path class="cls-1" d="M443.95,460.42h.41v.45h-14.53v-.45h.41c.67,0,1.16-.21,1.48-.61.32-.41.47-.8.47-1.16s-.07-.73-.23-1.1l-2.23-5.6h-10.65l-2.37,5.6c-.15.4-.23.77-.23,1.12s.17.73.5,1.14c.33.41.84.61,1.5.61h.36v.45h-9.74v-.45h.41c.7,0,1.4-.21,2.1-.64.69-.42,1.28-1.06,1.73-1.91l10.52-23.82c1.43-3.01,2.19-5,2.28-5.97h.41l13.53,29.7c.46.88,1.04,1.54,1.73,1.98.7.44,1.42.66,2.15.66ZM419.86,450.04h9.12l-4.42-11.21-4.69,11.21Z"/>
        <path class="cls-1" d="M462.35,461.49c-5.85-.01-10.46-1.5-13.8-4.44-3.33-2.95-5.01-6.98-5.01-12.12s1.65-9.18,4.97-12.14c3.31-2.96,7.85-4.44,13.61-4.44,4.4,0,8.19.82,11.34,2.46l.09,7.83h-.36c-1.55-5.59-5.09-8.38-10.61-8.38-3.59,0-6.42,1.3-8.5,3.9-2.08,2.59-3.11,6.14-3.11,10.63s.99,8.06,2.98,10.71c1.99,2.64,4.68,4.01,8.09,4.1,3.52,0,6.21-.88,8.06-2.64,1.88-1.82,3.19-4.95,3.92-9.38h.37l.45,7.83c-2.46,4.07-6.62,6.09-12.48,6.08Z"/>
        <path class="cls-1" d="M479.39,460.42c.79,0,1.46-.28,2.02-.84.56-.56.86-1.24.89-2.03v-25.27c-.03-.79-.33-1.46-.89-2s-1.24-.82-2.02-.82h-.59v-.45h13.85l-.05.45h-.54c-.8,0-1.48.27-2.05.82-.58.55-.87,1.22-.87,2v25.27c0,.8.29,1.47.87,2.03.57.56,1.26.84,2.05.84h.54l.05.45h-13.85v-.45h.59Z"/>
        <path class="cls-1" d="M500.63,432.82c3.23-2.98,7.59-4.46,13.07-4.46s9.84,1.48,13.07,4.46c3.23,2.97,4.85,7.01,4.85,12.12s-1.62,9.14-4.85,12.12c-3.23,2.97-7.59,4.46-13.07,4.46s-9.84-1.48-13.07-4.46c-3.23-2.98-4.85-7.02-4.85-12.12s1.62-9.14,4.85-12.12ZM506.05,455.66c1.86,2.63,4.41,3.94,7.62,3.94s5.77-1.31,7.65-3.94c1.88-2.63,2.83-6.2,2.83-10.73s-.94-8.1-2.83-10.73c-1.88-2.63-4.43-3.94-7.65-3.94s-5.76,1.32-7.62,3.94c-1.87,2.63-2.8,6.2-2.8,10.73s.93,8.1,2.8,10.73ZM513.22,425.76l-.31-.31c1.3-2.25,3.49-4.74,6.56-7.47,1.46.76,2.47,1.98,3.05,3.69-3.1,2-6.19,3.37-9.3,4.1Z"/>
        <path class="cls-1" d="M569.84,429.45c-1.06,0-1.86.45-2.41,1.37-.24.39-.38.85-.41,1.36v23.5c0,2.03.13,3.75.41,5.15l.13.68h-.41l-23-21.91v18.08c0,.76.27,1.4.82,1.94.55.53,1.2.8,1.96.8h.87v.45h-13.81v-.45h.82c.79,0,1.46-.27,2-.8.55-.53.82-1.2.82-1.98v-23.64c0-2-.14-3.68-.41-5.01l-.09-.68h.41l23,21.91v-17.99c-.03-.79-.32-1.45-.87-1.98-.54-.53-1.2-.8-1.96-.8h-.82v-.45h13.8v.45h-.87Z"/>
      </g>
    </g>
  </g>
</svg>