<svg version="1.1" id="svg2" width="1440" height="1440" viewBox="0 0 1440 1440">
  <defs id="defs6">
    <clipPath clipPathUnits="userSpaceOnUse" id="clipPath16">
      <path d="M 0,1080 H 1080 V 0 H 0 Z" id="path14" />
    </clipPath>
  </defs>
  <g id="g8" transform="matrix(1.3333333,0,0,-1.3333333,0,1440)">
    <g id="g10">
      <g id="g12" clip-path="url(#clipPath16)">
        <g id="g18" transform="translate(520.3564,768.9834)">
          <path d="M 0,0 C -5.347,0.761 -10.506,1.434 -15.644,2.239 -25.468,3.78 -35.243,6.342 -45.108,6.742 -57.44,7.24 -69.952,6.131 -80.869,-0.714 c -10.844,-6.799 -12.605,-17.745 -11.794,-29.243 1.356,-19.206 8.55,-36.662 17.186,-53.58 9.764,-19.128 19.725,-38.156 29.381,-57.338 1.312,-2.606 1.294,-5.867 2.002,-8.799 0.396,-1.643 1.018,-3.232 1.757,-5.524 -1.512,0.636 -2.339,0.836 -2.998,1.283 -31.998,21.77 -60.276,47.322 -81.318,80.196 -9.772,15.266 -15.654,31.931 -16.444,50.055 -1.111,25.489 9.455,45.637 30.044,60.254 22.426,15.921 47.204,19.704 72.99,10.165 C -19.693,39.221 -7.516,23.054 -0.034,3.137 0.237,2.414 0,1.5 0,0" style="fill:#7a1c8d;fill-opacity:1;fill-rule:nonzero;stroke:none" id="path20" />
        </g>
        <g id="g22" transform="translate(572.6973,770.9409)">
          <path d="m 0,0 c 0.896,2.371 1.539,4.353 2.378,6.248 10.087,22.793 26.923,37.566 51.71,41.992 23.827,4.256 46.328,-0.219 65.381,-15.258 19.978,-15.769 30.889,-36.17 27.282,-62.904 -2.586,-19.164 -11.485,-35.222 -22.149,-50.631 -14.217,-20.543 -33.165,-36.364 -52.55,-51.649 -8.91,-7.025 -18.357,-13.37 -28.068,-20.391 0.449,15.041 9.731,25.169 15.832,36.6 10.981,20.573 22.951,40.646 30.745,62.753 3.502,9.932 6.16,20.076 4.918,30.841 C 93.792,-7.764 85.053,1.564 70.366,4.288 56.76,6.812 43.218,6.455 29.637,3.947 21.26,2.4 12.803,1.278 4.373,0.025 3.151,-0.156 1.88,0 0,0" style="fill:#7a1c8d;fill-opacity:1;fill-rule:nonzero;stroke:none" id="path24" />
        </g>
        <g id="g26" transform="translate(909.6406,568.2397)">
          <path d="m 0,0 c -0.04,33.135 -10.432,69.105 -21.458,100.121 -10.146,28.541 -23.785,55.816 -40.697,80.953 -36.346,54.02 -87.411,98.861 -146.048,127.22 -134.179,64.894 -295.337,40.992 -406.719,-56.966 -51.358,-45.167 -90.49,-105.383 -109.166,-171.311 -8.536,-30.134 -14.549,-60.299 -15.041,-91.413 -0.299,-18.9 -0.818,-37.864 1.01,-56.71 1.916,-19.756 6.077,-39.518 10.277,-58.898 14.777,-68.194 46.676,-132.816 96.696,-182.163 24.64,-24.308 53.298,-44.725 85.126,-58.491 15.317,-6.623 31.261,-11.747 47.521,-15.478 17.068,-3.917 36.008,-8.063 53.574,-6.327 31.624,3.124 63.567,25.356 82.184,50.296 18.225,24.417 23.735,54.518 19.041,84.297 -2.729,17.306 -8.892,33.744 -16.749,49.341 -4.065,8.07 -8.405,16.12 -13.314,23.712 -8.888,13.747 -0.95,-6.983 0.565,-11.807 10.807,-34.412 14.779,-72.831 1.529,-107.119 -11.578,-29.959 -36.833,-50.865 -68.471,-56.877 -34.26,-6.51 -70.918,5.055 -101.388,20.281 -61.278,30.618 -107.941,85.304 -136.484,146.837 -61.002,131.507 -38.976,296.422 61.539,402.1 12.457,13.096 26.661,23.757 40.767,34.959 14.659,11.64 29.516,22.553 46.126,31.29 32.068,16.867 67.484,28.488 103.167,34.584 70.92,12.114 146.571,1.266 210.795,-31.4 123.09,-62.605 198.959,-197.183 186.853,-334.993 -6.293,-71.644 -33.091,-141.781 -80.529,-196.468 -46.197,-53.257 -107.412,-93.303 -176.263,-110.06 -9.125,-2.22 -18.339,-4.065 -27.601,-5.609 -7.812,-1.301 -16.808,-1.179 -23.952,-4.782 -11.549,-5.824 -22.782,-19.201 -29.037,-30.216 3.651,0 5.212,1.153 8.466,1.732 4.528,0.807 9.331,0.693 13.946,1.147 10.384,1.02 20.775,2.813 31.089,4.392 20.786,3.183 40.947,8.102 60.856,14.888 37.474,12.771 72.803,31.22 104.482,54.986 60.487,45.377 106.838,110.084 129.954,182.12 6.941,21.626 11.529,43.837 14.766,66.299 C 1.022,-50.481 0.041,-25.243 0,0 -0.002,1.413 0.02,-12.12 0,0" style="fill:#7a1c8d;fill-opacity:1;fill-rule:nonzero;stroke:none" id="path28" />
        </g>
        <g id="g30" transform="translate(837.0352,597.8291)">
          <path d="m 0,0 v 0 c -5.476,18.988 -16.807,33.339 -34.382,42.412 -16.212,8.369 -33.642,10.467 -51.461,7.822 -42.631,-6.33 -79.567,-29.59 -114.415,-49.993 h 47.926 c 4.246,0 8.46,2.205 12.75,2.507 15.603,1.104 31.221,2.316 46.849,2.601 8.857,0.161 17.848,1.17 25.981,-5.108 h 2.568 c 1.597,0 3.191,-1.93 4.793,-2.822 7.232,-4.025 11.838,-9.874 13.498,-18.224 1.829,-9.198 0.514,-18.182 -3.141,-26.303 -6.111,-13.569 -13.445,-26.603 -20.314,-39.828 -1.602,-3.085 -3.4,-6.079 -5.311,-9.468 4.449,0 8.133,0.003 11.816,-0.006 14.473,-0.031 27.358,5.083 38.004,14.294 C 0.543,-60.153 7.956,-32.286 0,0" style="fill:#7a1c8d;fill-opacity:1;fill-rule:nonzero;stroke:none" id="path32" />
        </g>
        <g id="g34" transform="translate(451.1353,601.1436)">
          <path d="m 0,0 c -18.835,12.009 -37.18,24.86 -56.712,35.611 -25.377,13.969 -52.71,22.23 -82.224,20.024 -16.486,-1.233 -31.39,-6.869 -43.541,-18.467 -11.597,-11.07 -18.092,-24.93 -21.277,-40.475 -10.054,-52.413 27.519,-97.521 74.065,-93.115 -1.064,2.193 -1.866,4.22 -2.976,6.062 -9.191,15.266 -17.491,31.09 -22.037,48.426 -3.613,13.781 -4.552,24.735 6.577,38.861 h 0.856 c 4.056,6.278 10.341,7.199 16.538,8.605 14.044,3.184 28.396,3.025 42.516,1.351 19.879,-2.357 39.614,-5.861 59.403,-8.971 0.775,-0.121 1.477,-0.985 2.212,-0.985 H 3.353 C 2.244,-3.073 1.278,-0.813 0,0" style="fill:#7a1c8d;fill-opacity:1;fill-rule:nonzero;stroke:none" id="path36" />
        </g>
        <g id="g38" transform="translate(677.3066,597.8291)">
          <path d="m 0,0 c -14.997,-1.891 -29.833,-6.125 -46.3,-4.046 1.808,2.084 2.658,3.065 3.509,4.046 z" style="fill:#7a1c8d;fill-opacity:1;fill-rule:nonzero;stroke:none" id="path40" />
        </g>
        <g id="g42" transform="translate(454.7954,597.8291)">
          <path d="M 0,0 C 0.441,-0.684 0.881,-1.368 1.629,-2.529 -8,-4.377 -16.78,-1.47 -25.674,0 Z" style="fill:#7a1c8d;fill-opacity:1;fill-rule:nonzero;stroke:none" id="path44" />
        </g>
        <g id="g46" transform="translate(764.7441,469.5605)">
          <path d="m 0,0 c 17.907,-7.657 32.575,-18.182 41.609,-35.493 5.714,-10.948 7.054,-22.541 6.748,-34.723 -0.815,-32.528 -25.585,-67.455 -62.635,-75.851 -17.98,-4.076 -35.614,-1.888 -52.641,5.575 -24.818,10.877 -44.986,27.78 -62.625,47.899 -16.474,18.79 -30.728,39.205 -43.398,62.053 3.265,-0.913 6.007,-1.219 8.292,-2.405 6.56,-3.409 13.032,-7.011 19.363,-10.828 18.165,-10.953 35.94,-22.592 54.451,-32.918 15.019,-8.379 30.768,-15.801 48.141,-17.883 6.486,-0.778 13.36,-0.058 19.825,1.185 7.629,1.467 13.042,6.606 16.791,13.457 5.867,10.722 8.553,22.396 8.48,34.375 C 2.317,-31.664 0.856,-17.78 0.009,-3.893 -0.058,-2.795 0,-1.689 0,0" style="fill:#7a1c8d;fill-opacity:1;fill-rule:nonzero;stroke:none" id="path48" />
        </g>
        <g id="g50" transform="translate(479.3682,435.2764)">
          <path d="m 0,0 c -1.456,-2.809 -2.786,-5.691 -4.388,-8.414 -13.677,-23.243 -28.146,-45.95 -46.86,-65.571 -15.364,-16.109 -32.123,-30.476 -53.528,-38.014 -26.771,-9.427 -51.938,-6.341 -73.703,12.464 -16.512,14.265 -25.761,32.829 -28.424,54.753 -2.012,16.559 0.454,32.15 9.03,46.32 7.386,12.203 18.247,20.996 31.128,27.188 1.124,0.541 2.355,0.859 4.62,1.667 -0.291,-5.364 -0.482,-10.067 -0.813,-14.76 -1.273,-18.038 -2.704,-36.147 2.341,-53.831 6.148,-21.552 20.469,-29.686 42.31,-24.736 17.603,3.991 33.436,12.078 48.554,21.541 18.468,11.562 36.572,23.703 54.94,35.426 4.325,2.76 9.077,4.852 13.632,7.25 C -0.773,0.855 -0.387,0.428 0,0" style="fill:#7a1c8d;fill-opacity:1;fill-rule:nonzero;stroke:none" id="path52" />
        </g>
        <g id="g54" transform="translate(541.8613,629.4102)">
          <path d="m 0,0 h -53.019 v 1.123 h 1.35 c 1.724,0 3.168,0.568 4.33,1.69 1.163,1.13 1.784,2.513 1.858,4.164 v 53.587 c -0.074,1.651 -0.695,3.041 -1.858,4.164 -1.162,1.129 -2.606,1.69 -4.33,1.69 h -1.35 v 1.123 h 39.621 c 2.031,0 4.243,0.187 6.642,0.568 2.406,0.374 4.09,0.748 5.066,1.122 V 51.335 h -1.123 v 1.01 c 0,3.301 -0.902,5.894 -2.7,7.772 -1.804,1.871 -4.317,2.846 -7.544,2.926 H -29.269 V 35.685 h 12.837 c 2.546,0.074 4.611,0.936 6.188,2.593 1.577,1.644 2.366,3.749 2.366,6.302 v 0.788 h 1.122 V 21.505 h -1.122 v 0.782 c 0,3.528 -1.317,6.081 -3.943,7.658 -1.35,0.822 -2.853,1.236 -4.504,1.236 H -29.269 V 4.504 h 13.512 c 4.651,0.074 8.607,1.517 11.875,4.33 3.261,2.82 5.647,6.777 7.151,11.882 h 1.008 z" style="fill:#7a1c8d;fill-opacity:1;fill-rule:nonzero;stroke:none" id="path56" />
        </g>
        <g id="g58" transform="translate(551.7725,629.4102)">
          <path d="m 0,0 v 1.123 h 1.35 c 1.723,0 3.167,0.568 4.33,1.69 1.163,1.13 1.751,2.513 1.751,4.164 v 53.474 c 0,1.65 -0.602,3.06 -1.805,4.223 C 4.424,65.837 3,66.418 1.35,66.418 H 0 v 1.123 h 31.294 v -1.123 h -1.35 c -1.73,0 -3.194,-0.561 -4.39,-1.69 -1.203,-1.123 -1.805,-2.553 -1.805,-4.277 V 4.504 h 13.513 c 4.651,0.074 8.587,1.517 11.814,4.33 3.228,2.82 5.594,6.777 7.098,11.882 h 1.235 L 53.02,0 Z" style="fill:#7a1c8d;fill-opacity:1;fill-rule:nonzero;stroke:none" id="path60" />
        </g>
        <g id="g62" transform="translate(400.9863,564.6362)">
          <path d="m 0,0 v 1.016 c 0,3.227 -0.902,5.78 -2.707,7.651 -1.797,1.878 -4.316,2.854 -7.538,2.927 H -23.302 V -44.58 c 0.073,-1.65 0.708,-3.034 1.911,-4.163 1.196,-1.123 2.626,-1.691 4.277,-1.691 h 1.236 v -1.122 h -31.067 v 1.122 h 1.123 c 1.73,0 3.194,0.568 4.39,1.691 1.203,1.129 1.804,2.553 1.804,4.277 v 56.06 h -12.944 c -3.308,-0.073 -5.854,-1.049 -7.658,-2.927 -1.798,-1.871 -2.7,-4.424 -2.7,-7.651 V 0 h -1.129 v 17.789 c 1.056,-0.374 2.8,-0.748 5.239,-1.129 2.439,-0.375 4.631,-0.562 6.582,-0.562 h 41.539 c 3.302,0 6.028,0.247 8.166,0.735 2.139,0.488 3.355,0.802 3.656,0.956 L 1.123,0 Z" style="fill:#7a1c8d;fill-opacity:1;fill-rule:nonzero;stroke:none" id="path64" />
        </g>
        <g id="g66" transform="translate(436.1035,576.0098)">
          <path d="m 0,0 h -3.602 v -55.84 c 0,-1.798 0.622,-3.247 1.857,-4.33 1.244,-1.089 2.647,-1.638 4.224,-1.638 h 1.236 v -1.122 h -30.953 v 1.122 h 1.349 c 1.651,0 3.055,0.569 4.224,1.692 1.163,1.129 1.744,2.512 1.744,4.163 v 53.587 c 0,1.651 -0.581,3.041 -1.744,4.164 -1.169,1.129 -2.533,1.69 -4.11,1.69 h -1.463 V 4.611 H 7.317 c 6.756,0 12.423,-1.31 17.001,-3.936 5.105,-2.927 7.651,-7.772 7.651,-14.521 0,-4.357 -1.309,-8.273 -3.936,-11.768 -2.626,-3.489 -6.529,-5.607 -11.708,-6.355 2.025,-0.682 4.03,-1.958 6.021,-3.829 1.992,-1.879 3.582,-3.79 4.785,-5.741 2.399,-4.276 4.918,-8.199 7.545,-11.768 2.626,-3.562 4.744,-5.874 6.362,-6.923 1.61,-1.049 3.581,-1.578 5.907,-1.578 v -1.122 h -9.456 c -6.228,0 -11.013,0.748 -14.354,2.252 -3.342,1.497 -6.322,4.351 -8.948,8.554 -4.057,6.455 -6.569,11.554 -7.545,15.31 -0.902,2.251 -1.971,3.942 -3.207,5.065 -1.237,1.129 -2.419,1.764 -3.549,1.918 v 0.895 h 2.82 c 6.376,0.074 10.278,3.83 11.708,11.261 0.294,1.122 0.448,2.098 0.448,2.926 0,0.823 -0.04,1.972 -0.114,3.436 -0.073,1.463 -0.548,3.113 -1.403,4.951 -0.869,1.838 -1.971,3.168 -3.322,3.996 -2.332,1.424 -4.731,2.179 -7.21,2.252 C 1.991,-0.04 1.049,0 0,0" style="fill:#7a1c8d;fill-opacity:1;fill-rule:nonzero;stroke:none" id="path68" />
        </g>
        <g id="g70" transform="translate(509.8389,587.604)">
          <path d="m 0,0 -0.789,0.789 c 3.222,5.553 8.628,11.741 16.206,18.57 3.608,-1.951 6.154,-5.025 7.658,-9.228 C 15.343,5.252 7.651,1.871 0,0 m 25.213,-74.524 h -53.019 v 1.122 h 1.349 c 1.725,0 3.168,0.569 4.331,1.692 1.163,1.128 1.784,2.512 1.858,4.163 v 53.587 c -0.074,1.651 -0.695,3.041 -1.858,4.164 -1.163,1.129 -2.606,1.69 -4.331,1.69 h -1.349 v 1.123 h 39.621 c 2.031,0 4.243,0.187 6.643,0.568 2.405,0.374 4.089,0.748 5.064,1.123 V -23.188 H 22.4 v 1.009 c 0,3.301 -0.902,5.893 -2.7,7.771 -1.804,1.871 -4.317,2.847 -7.544,2.928 H -4.056 V -38.839 H 8.781 c 2.546,0.073 4.611,0.936 6.188,2.593 1.577,1.643 2.365,3.782 2.365,6.415 v 0.675 h 1.124 V -53.02 h -1.124 v 0.782 c 0,3.529 -1.316,6.081 -3.942,7.658 -1.35,0.823 -2.853,1.237 -4.504,1.237 H -4.056 V -70.02 H 9.456 c 4.651,0.073 8.607,1.517 11.875,4.33 3.261,2.82 5.647,6.776 7.15,11.882 h 1.009 z" style="fill:#7a1c8d;fill-opacity:1;fill-rule:nonzero;stroke:none" id="path72" />
        </g>
        <g id="g74" transform="translate(587.8516,533.3418)">
          <path d="m 0,0 c 0,3.455 -0.715,6.341 -2.139,8.667 -2.626,4.504 -7.171,6.756 -13.619,6.756 h -0.227 v 1.016 c 3.602,0 6.529,1.049 8.781,3.147 2.252,2.105 3.375,5.367 3.375,9.797 0,9.008 -4.09,13.506 -12.27,13.506 h -3.154 v -58.647 h 4.504 c 4.351,0 7.899,1.277 10.639,3.829 C -1.37,-9.383 0,-5.399 0,0 m 12.944,30.506 c 0,-2.774 -0.601,-5.213 -1.798,-7.318 C 8.814,19.139 5.292,16.927 0.562,16.552 5.586,16.171 9.796,14.394 13.171,11.2 c 3.375,-3.188 5.065,-7.258 5.065,-12.21 0,-9.682 -5.82,-15.763 -17.448,-18.236 -3.301,-0.675 -6.909,-1.016 -10.806,-1.016 h -32.651 v 1.122 h 1.243 c 1.725,0 3.168,0.569 4.33,1.692 1.163,1.129 1.785,2.552 1.859,4.276 v 53.361 c -0.074,2.7 -1.35,4.537 -3.823,5.519 -0.755,0.294 -1.544,0.448 -2.366,0.448 h -1.243 v 1.123 h 30.172 c 16.961,0 25.441,-5.587 25.441,-16.773" style="fill:#7a1c8d;fill-opacity:1;fill-rule:nonzero;stroke:none" id="path76" />
        </g>
        <g id="g78" transform="translate(632.2031,546.8535)">
          <path d="m 0,0 c 0,-9.456 2.045,-16.947 6.135,-22.46 4.09,-5.513 9.569,-8.273 16.439,-8.273 6.863,0 12.343,2.76 16.433,8.273 4.09,5.513 6.135,13.004 6.135,22.46 0,9.456 -2.045,16.94 -6.135,22.454 -4.09,5.52 -9.57,8.279 -16.433,8.279 -6.87,0 -12.349,-2.759 -16.439,-8.279 C 2.045,16.94 0,9.456 0,0 m -17.221,0 c 0,10.806 3.616,19.38 10.86,25.721 7.244,6.342 16.886,9.51 28.935,9.51 12.042,0 21.705,-3.168 28.983,-9.51 C 58.834,19.38 62.476,10.806 62.476,0 c 0,-10.806 -3.642,-19.386 -10.919,-25.728 -7.278,-6.341 -16.92,-9.509 -28.929,-9.509 -12.009,0 -21.651,3.168 -28.929,9.509 -7.284,6.342 -10.92,14.922 -10.92,25.728" style="fill:#7a1c8d;fill-opacity:1;fill-rule:nonzero;stroke:none" id="path80" />
        </g>
        <g id="g82" transform="translate(700.9873,513.0801)">
          <path d="m 0,0 v 1.122 h 1.35 c 1.724,0 3.168,0.568 4.331,1.691 1.162,1.129 1.75,2.513 1.75,4.164 v 53.474 c 0,1.65 -0.601,3.06 -1.804,4.223 -1.203,1.162 -2.626,1.744 -4.277,1.744 H 0 v 1.123 h 31.295 v -1.123 h -1.351 c -1.73,0 -3.194,-0.562 -4.389,-1.69 C 24.352,63.604 23.75,62.175 23.75,60.451 V 4.504 h 13.512 c 4.651,0.073 8.588,1.517 11.815,4.33 3.228,2.82 5.593,6.776 7.097,11.882 H 57.41 L 53.02,0 Z" style="fill:#7a1c8d;fill-opacity:1;fill-rule:nonzero;stroke:none" id="path84" />
        </g>
        <g id="g86" transform="translate(364.9204,457.1934)">
          <path d="m 0,0 c 1.864,-2.626 4.411,-3.936 7.625,-3.936 3.221,0 5.773,1.31 7.651,3.936 1.885,2.626 2.827,6.201 2.827,10.726 0,4.524 -0.942,8.099 -2.827,10.725 -1.878,2.626 -4.43,3.943 -7.651,3.943 C 4.411,25.394 1.864,24.077 0,21.451 -1.871,18.825 -2.8,15.25 -2.8,10.726 -2.8,6.201 -1.871,2.626 0,0 m -5.419,22.841 c 3.234,2.98 7.591,4.464 13.07,4.464 5.48,0 9.837,-1.484 13.072,-4.464 3.234,-2.974 4.851,-7.01 4.851,-12.115 0,-5.099 -1.617,-9.135 -4.851,-12.116 -3.235,-2.973 -7.592,-4.457 -13.072,-4.457 -5.479,0 -9.836,1.484 -13.07,4.457 -3.235,2.981 -4.852,7.017 -4.852,12.116 0,5.105 1.617,9.141 4.852,12.115" style="fill:#7a1c8d;fill-opacity:1;fill-rule:nonzero;stroke:none" id="path88" />
        </g>
        <g id="g90" transform="translate(405.978,481.8594)">
          <path d="m 0,0 h -1.958 -0.133 v -26.551 c 0.026,-0.795 0.327,-1.47 0.888,-2.031 0.562,-0.562 1.237,-0.842 2.025,-0.842 h 0.595 v -0.454 h -13.846 v 0.454 h 0.588 c 1.095,0 1.931,0.475 2.506,1.41 0.24,0.428 0.38,0.896 0.407,1.417 V -1.323 C -8.955,-0.535 -9.249,0.14 -9.81,0.708 -10.378,1.27 -11.053,1.55 -11.841,1.55 h -0.588 V 2.004 H 3.188 c 2.947,0 5.439,-0.642 7.471,-1.911 1.036,-0.642 1.851,-1.53 2.459,-2.666 0.608,-1.143 0.909,-2.626 0.909,-4.464 0,-1.838 -0.635,-3.609 -1.911,-5.306 -1.277,-1.704 -3.128,-2.674 -5.554,-2.914 1.758,-0.581 3.308,-1.911 4.645,-4.01 3.281,-5.252 5.707,-8.379 7.284,-9.381 0.788,-0.489 1.778,-0.743 2.96,-0.776 v -0.454 h -4.464 c -2.639,0 -4.831,0.347 -6.575,1.049 -1.751,0.695 -3.121,1.925 -4.123,3.688 -0.582,1.003 -1.838,3.596 -3.783,7.786 -0.849,1.851 -1.884,2.874 -3.094,3.054 v 0.454 h 1.41 c 1.364,0 2.573,0.408 3.622,1.23 1.049,0.822 1.751,2.158 2.118,4.01 0.121,0.634 0.181,1.135 0.181,1.503 0,2.486 -0.501,4.284 -1.504,5.393 C 4.237,-0.602 2.947,-0.034 1.37,0 Z" style="fill:#7a1c8d;fill-opacity:1;fill-rule:nonzero;stroke:none" id="path92" />
        </g>
        <g id="g94" transform="translate(443.4141,451.3467)">
          <path d="m 0,0 c -5.192,0 -9.362,1.49 -12.503,4.483 -3.141,2.988 -4.711,7.031 -4.711,12.116 0,5.086 1.57,9.115 4.711,12.088 3.141,2.981 7.404,4.464 12.777,4.464 2.426,0 4.778,-0.233 7.057,-0.701 2.278,-0.474 4.116,-1.055 5.513,-1.758 l 0.094,-7.832 h -0.415 c -0.789,2.948 -2.138,5.079 -4.049,6.403 -1.918,1.316 -4.19,1.977 -6.837,1.977 -3.675,0 -6.495,-1.316 -8.467,-3.942 -1.978,-2.626 -2.96,-6.222 -2.96,-10.792 0,-4.571 0.902,-8.147 2.707,-10.726 1.804,-2.58 4.363,-3.869 7.678,-3.869 2.392,0 4.397,0.682 6.008,2.051 0.788,0.695 1.369,1.517 1.73,2.46 v 6.963 c 0,0.668 -0.207,1.176 -0.615,1.53 -0.407,0.348 -0.995,0.522 -1.751,0.522 H 5.239 v 0.454 h 12.797 v -0.454 h -0.682 c -0.728,0 -1.296,-0.174 -1.69,-0.522 -0.394,-0.354 -0.588,-0.862 -0.588,-1.53 V 5.874 C 13.893,4.323 11.935,2.96 9.202,1.771 6.469,0.588 3.401,0 0,0" style="fill:#7a1c8d;fill-opacity:1;fill-rule:nonzero;stroke:none" id="path96" />
        </g>
        <g id="g98" transform="translate(471.1064,462.8203)">
          <path d="M 0,0 H 9.115 L 4.691,11.207 Z m 24.098,-10.385 h 0.407 v -0.454 H 9.977 v 0.454 h 0.408 c 0.668,0 1.163,0.207 1.484,0.615 0.32,0.415 0.474,0.795 0.474,1.163 0,0.361 -0.073,0.728 -0.227,1.095 L 9.884,-1.911 H -0.768 l -2.373,-5.601 c -0.153,-0.4 -0.227,-0.767 -0.227,-1.115 0,-0.354 0.167,-0.728 0.501,-1.143 0.334,-0.408 0.836,-0.615 1.504,-0.615 h 0.361 v -0.454 h -9.744 v 0.454 h 0.408 c 0.702,0 1.397,0.214 2.099,0.642 0.695,0.421 1.276,1.062 1.73,1.911 L 4.01,15.984 c 1.43,3.008 2.185,4.999 2.279,5.968 H 6.696 L 20.222,-7.745 c 0.461,-0.875 1.035,-1.537 1.731,-1.979 0.701,-0.44 1.416,-0.661 2.145,-0.661" style="fill:#7a1c8d;fill-opacity:1;fill-rule:nonzero;stroke:none" id="path100" />
        </g>
        <g id="g102" transform="translate(531.4033,483.4092)">
          <path d="M 0,0 C -1.062,0 -1.864,-0.454 -2.412,-1.37 -2.653,-1.764 -2.793,-2.219 -2.82,-2.733 v -23.502 c 0,-2.033 0.134,-3.749 0.408,-5.146 l 0.134,-0.682 h -0.408 l -23.001,21.906 V -28.24 c 0,-0.762 0.273,-1.404 0.821,-1.939 0.548,-0.527 1.197,-0.795 1.958,-0.795 h 0.869 v -0.454 h -13.806 v 0.454 h 0.822 c 0.788,0 1.457,0.268 2.004,0.795 0.549,0.535 0.823,1.197 0.823,1.986 v 23.635 c 0,2.005 -0.141,3.676 -0.415,5.012 l -0.087,0.682 h 0.408 L -9.289,-20.77 v 17.99 c -0.033,0.789 -0.32,1.45 -0.868,1.978 C -10.699,-0.268 -11.354,0 -12.115,0 h -0.816 v 0.454 h 13.8 L 0.869,0 Z" style="fill:#7a1c8d;fill-opacity:1;fill-rule:nonzero;stroke:none" id="path104" />
        </g>
        <g id="g106" transform="translate(535.373,452.4355)">
          <path d="M 0,0 C 0.789,0 1.463,0.28 2.025,0.842 2.586,1.403 2.88,2.078 2.914,2.873 V 28.147 C 2.88,28.936 2.586,29.604 2.025,30.151 1.463,30.7 0.789,30.974 0,30.974 h -0.595 v 0.454 h 13.847 l -0.047,-0.454 h -0.542 c -0.795,0 -1.476,-0.274 -2.051,-0.823 C 10.03,29.604 9.743,28.936 9.743,28.147 V 2.873 c 0,-0.795 0.287,-1.47 0.869,-2.031 C 11.187,0.28 11.868,0 12.663,0 h 0.542 l 0.047,-0.454 H -0.595 V 0 Z" style="fill:#7a1c8d;fill-opacity:1;fill-rule:nonzero;stroke:none" id="path108" />
        </g>
        <g id="g110" transform="translate(553.1289,484.7256)">
          <path d="M 0,0 C 0.454,-0.181 1.256,-0.36 2.392,-0.541 3.528,-0.729 4.57,-0.815 5.513,-0.815 h 14.528 c 1.276,0 2.352,0.074 3.234,0.227 0.882,0.148 1.397,0.275 1.55,0.36 V -0.635 L 7.972,-30.833 h 9.563 c 1.944,0 3.635,0.654 5.078,1.958 1.444,1.31 2.466,3.067 3.074,5.286 h 0.455 l -1.637,-9.155 h -25.14 v 0.407 L 16.078,-2.733 H 5.059 C 3.141,-2.76 1.791,-3.502 1.002,-4.965 0.642,-5.66 0.454,-6.462 0.454,-7.377 V -7.926 H 0 Z" style="fill:#7a1c8d;fill-opacity:1;fill-rule:nonzero;stroke:none" id="path112" />
        </g>
        <g id="g114" transform="translate(590.0635,462.8203)">
          <path d="M 0,0 H 9.115 L 4.69,11.207 Z m 24.097,-10.385 h 0.408 v -0.454 H 9.977 v 0.454 h 0.408 c 0.668,0 1.162,0.207 1.483,0.615 0.32,0.415 0.475,0.795 0.475,1.163 0,0.361 -0.074,0.728 -0.228,1.095 L 9.883,-1.911 H -0.769 l -2.372,-5.601 c -0.154,-0.4 -0.227,-0.767 -0.227,-1.115 0,-0.354 0.167,-0.728 0.501,-1.143 0.334,-0.408 0.835,-0.615 1.504,-0.615 h 0.36 v -0.454 h -9.743 v 0.454 h 0.408 c 0.701,0 1.397,0.214 2.098,0.642 0.695,0.421 1.276,1.062 1.731,1.911 L 4.01,15.984 c 1.429,3.008 2.184,4.999 2.278,5.968 H 6.695 L 20.222,-7.745 c 0.461,-0.875 1.035,-1.537 1.73,-1.979 0.701,-0.44 1.417,-0.661 2.145,-0.661" style="fill:#7a1c8d;fill-opacity:1;fill-rule:nonzero;stroke:none" id="path116" />
        </g>
        <g id="g118" transform="translate(632.5576,451.3662)">
          <path d="m 0,0 c -5.854,0.014 -10.458,1.497 -13.8,4.437 -3.334,2.948 -5.005,6.984 -5.005,12.116 0,5.133 1.651,9.181 4.965,12.142 3.309,2.96 7.846,4.437 13.612,4.437 4.405,0 8.187,-0.815 11.341,-2.459 l 0.094,-7.832 h -0.361 c -1.55,5.587 -5.092,8.38 -10.612,8.38 -3.588,0 -6.416,-1.296 -8.501,-3.896 -2.078,-2.593 -3.113,-6.141 -3.113,-10.632 0,-4.497 0.988,-8.059 2.981,-10.706 1.991,-2.639 4.683,-4.008 8.086,-4.095 3.521,0 6.208,0.881 8.058,2.639 1.885,1.824 3.188,4.951 3.916,9.382 h 0.367 L 12.483,6.081 C 10.024,2.012 5.86,-0.014 0,0" style="fill:#7a1c8d;fill-opacity:1;fill-rule:nonzero;stroke:none" id="path120" />
        </g>
        <g id="g122" transform="translate(649.5986,452.4355)">
          <path d="M 0,0 C 0.788,0 1.463,0.28 2.024,0.842 2.586,1.403 2.88,2.078 2.913,2.873 V 28.147 C 2.88,28.936 2.586,29.604 2.024,30.151 1.463,30.7 0.788,30.974 0,30.974 h -0.595 v 0.454 h 13.846 l -0.047,-0.454 h -0.541 c -0.795,0 -1.476,-0.274 -2.052,-0.823 C 10.03,29.604 9.743,28.936 9.743,28.147 V 2.873 c 0,-0.795 0.287,-1.47 0.868,-2.031 C 11.187,0.28 11.868,0 12.663,0 h 0.541 l 0.047,-0.454 H -0.595 V 0 Z" style="fill:#7a1c8d;fill-opacity:1;fill-rule:nonzero;stroke:none" id="path124" />
        </g>
        <g id="g126" transform="translate(683.4326,487.0977)">
          <path d="M 0,0 -0.314,0.314 C 0.988,2.566 3.174,5.053 6.241,7.785 7.698,7.03 8.714,5.801 9.295,4.097 6.194,2.092 3.101,0.729 0,0 m -7.171,-29.904 c 1.864,-2.626 4.41,-3.936 7.625,-3.936 3.221,0 5.774,1.31 7.651,3.936 1.885,2.626 2.828,6.201 2.828,10.725 0,4.525 -0.943,8.1 -2.828,10.726 -1.877,2.626 -4.43,3.942 -7.651,3.942 -3.215,0 -5.761,-1.316 -7.625,-3.942 -1.871,-2.626 -2.8,-6.201 -2.8,-10.726 0,-4.524 0.929,-8.099 2.8,-10.725 m -5.42,22.841 c 3.235,2.98 7.592,4.463 13.071,4.463 5.481,0 9.837,-1.483 13.072,-4.463 3.234,-2.974 4.851,-7.01 4.851,-12.116 0,-5.098 -1.617,-9.134 -4.851,-12.115 -3.235,-2.974 -7.591,-4.457 -13.072,-4.457 -5.479,0 -9.836,1.483 -13.071,4.457 -3.234,2.981 -4.851,7.017 -4.851,12.115 0,5.106 1.617,9.142 4.851,12.116" style="fill:#7a1c8d;fill-opacity:1;fill-rule:nonzero;stroke:none" id="path128" />
        </g>
        <g id="g130" transform="translate(740.0469,483.4092)">
          <path d="M 0,0 C -1.062,0 -1.864,-0.454 -2.412,-1.37 -2.653,-1.764 -2.793,-2.219 -2.82,-2.733 v -23.502 c 0,-2.033 0.133,-3.749 0.408,-5.146 l 0.134,-0.682 h -0.409 l -23,21.906 V -28.24 c 0,-0.762 0.273,-1.404 0.821,-1.939 0.549,-0.527 1.196,-0.795 1.958,-0.795 h 0.869 v -0.454 h -13.806 v 0.454 h 0.822 c 0.789,0 1.457,0.268 2.004,0.795 0.548,0.535 0.823,1.197 0.823,1.986 v 23.635 c 0,2.005 -0.141,3.676 -0.414,5.012 l -0.087,0.682 h 0.407 L -9.289,-20.77 v 17.99 c -0.033,0.789 -0.32,1.45 -0.868,1.978 C -10.698,-0.268 -11.354,0 -12.115,0 h -0.816 v 0.454 h 13.8 L 0.869,0 Z" style="fill:#7a1c8d;fill-opacity:1;fill-rule:nonzero;stroke:none" id="path132" />
        </g>
      </g>
    </g>
  </g>
</svg>